name C:\Users\Nicos\Desktop\Gil_twoSteps\Study2\ExperimentalData\IK_Splined\twoSteps_IK_BSplines_80_meshInts_study2_p02_s_01_lowIK_modROI.mot
datacolumns 38
datarows 7
range 0.43700000 0.44596497
endheader
                time	         pelvis_tilt	         pelvis_list	     pelvis_rotation	           pelvis_tx	           pelvis_ty	           pelvis_tz	       hip_flexion_r	     hip_adduction_r	      hip_rotation_r	        knee_angle_r	       ankle_angle_r	    subtalar_angle_r	         mtp_angle_r	       hip_flexion_l	     hip_adduction_l	      hip_rotation_l	        knee_angle_l	       ankle_angle_l	    subtalar_angle_l	         mtp_angle_l	    lumbar_extension	      lumbar_bending	     lumbar_rotation	          arm_flex_r	           arm_add_r	           arm_rot_r	        elbow_flex_r	           pro_sup_r	        wrist_flex_r	         wrist_dev_r	          arm_flex_l	           arm_add_l	           arm_rot_l	        elbow_flex_l	           pro_sup_l	        wrist_flex_l	         wrist_dev_l	
          0.43700000	        -21.47343906	          1.41379687	        -11.35852439	         -0.86223456	          0.85366083	          0.34101405	         25.48419641	          1.61302337	         10.77982127	        -56.88113440	         18.80839289	        -16.02298391	         12.57117757	         53.37378088	         -3.63160473	        -14.77800144	       -110.55240723	         -5.95772488	        -14.42543479	         10.19339712	        -25.63686762	         -3.43453746	         -6.78095514	         32.74223293	          1.26625828	          9.84263354	         81.57885180	         71.91279964	         -5.50688326	         10.70979170	        -43.71565558	         -9.80968059	        -17.05676753	         37.26470820	         71.14528087	        -10.38676593	         19.43608873	
          0.43784503	        -21.44272656	          1.54555703	        -11.46016999	         -0.85848920	          0.85353668	          0.34121850	         25.13489742	          1.40467941	         10.84001718	        -56.63772696	         18.71339009	        -15.92320114	         12.77212204	         53.96349565	         -3.55183355	        -14.71688506	       -110.76570877	         -5.76679525	        -14.46615589	         10.16548643	        -25.56853527	         -3.67963853	         -6.77589054	         33.46271641	          1.49319430	          9.98317648	         81.89551735	         71.90546475	         -5.52965120	         10.71693558	        -44.41630234	         -9.71925799	        -17.14850323	         37.46800251	         71.50780355	        -10.29942281	         19.54948747	
          0.44051497	        -21.34568760	          1.96186537	        -11.78132861	         -0.84665539	          0.85314439	          0.34186449	         24.03125519	          0.74639753	         11.03021171	        -55.86865883	         18.41322004	        -15.60792835	         13.40702456	         55.82675359	         -3.29978921	        -14.52378223	       -111.43965458	         -5.16353558	        -14.59481796	         10.07730004	        -25.35263292	         -4.45405784	         -6.75988846	         35.73915010	          2.21021948	         10.42723479	         82.89605121	         71.88228948	         -5.60158858	         10.73950732	        -46.63006009	         -9.43355948	        -17.43835061	         38.11032955	         72.65322724	        -10.02345419	         19.90778118	
          0.44245000	        -21.28793558	          2.27526907	        -11.98867252	         -0.83801716	          0.85282384	          0.34229159	         23.23102564	          0.23585488	         11.14609234	        -55.27716819	         18.18873221	        -15.34971913	         13.88368732	         57.18820574	         -3.09756405	        -14.37617518	       -111.88284400	         -4.75107929	        -14.71968309	          9.98079298	        -25.17027916	         -5.01740122	         -6.72971422	         37.34936466	          2.67168975	         10.74881282	         83.66915693	         71.85642270	         -5.65870654	         10.75333418	        -48.23205714	         -9.23113581	        -17.64813316	         38.62365674	         73.45770750	         -9.81562727	         20.15162632	
          0.44245000	        -21.28793558	          2.27526907	        -11.98867252	         -0.83801716	          0.85282384	          0.34229159	         23.23102564	          0.23585488	         11.14609234	        -55.27716819	         18.18873221	        -15.34971913	         13.88368732	         57.18820574	         -3.09756405	        -14.37617518	       -111.88284400	         -4.75107929	        -14.71968309	          9.98079298	        -25.17027916	         -5.01740122	         -6.72971422	         37.34936466	          2.67168975	         10.74881282	         83.66915693	         71.85642270	         -5.65870654	         10.75333418	        -48.23205714	         -9.23113581	        -17.64813316	         38.62365674	         73.45770750	         -9.81562727	         20.15162632	
          0.44329503	        -21.27154323	          2.42033585	        -12.06138043	         -0.83420150	          0.85265842	          0.34244928	         22.88130477	         -0.01058387	         11.18128148	        -54.99491877	         18.08582594	        -15.21609940	         14.10344269	         57.79052020	         -2.99552404	        -14.30634046	       -112.04462261	         -4.58833461	        -14.79640582	          9.91576882	        -25.07247909	         -5.26487860	         -6.70349723	         38.02473606	          2.83236795	         10.88907001	         84.04044775	         71.83875958	         -5.68714688	         10.75759513	        -48.92995689	         -9.14599067	        -17.73954679	         38.88138279	         73.79101291	         -9.71937985	         20.24700441	
          0.44596497	        -21.21975007	          2.87868767	        -12.29110774	         -0.82214557	          0.85213574	          0.34294749	         21.77632957	         -0.78922971	         11.29246480	        -54.10312583	         17.76068414	        -14.79391559	         14.79777994	         59.69358802	         -2.67311926	        -14.08569124	       -112.55577698	         -4.07412787	        -15.03881832	          9.71031901	        -24.76347080	         -6.04680607	         -6.62066224	         40.15863399	          3.34004547	         11.33222547	         85.21357520	         71.78295135	         -5.77700676	         10.77105799	        -51.13503521	         -8.87696680	        -18.02837655	         39.69569189	         74.84412194	         -9.41527730	         20.54836025	
